<svg width="133" height="133" viewBox="0 0 133 133" fill="none" xmlns="http://www.w3.org/2000/svg">
<path d="M132 66.5C132 102.675 102.675 132 66.5 132C30.3253 132 1 102.675 1 66.5C1 30.3253 30.3253 1 66.5 1C102.675 1 132 30.3253 132 66.5Z" fill="#141414"/>
<path d="M132 66.5C132 102.675 102.675 132 66.5 132C30.3253 132 1 102.675 1 66.5C1 30.3253 30.3253 1 66.5 1C102.675 1 132 30.3253 132 66.5Z" fill="#FF0000"/>
<path d="M132 66.5C132 102.675 102.675 132 66.5 132C30.3253 132 1 102.675 1 66.5C1 30.3253 30.3253 1 66.5 1C102.675 1 132 30.3253 132 66.5Z" stroke="#FF4646" stroke-width="2"/>
<path d="M132 66.5C132 102.675 102.675 132 66.5 132C30.3253 132 1 102.675 1 66.5C1 30.3253 30.3253 1 66.5 1C102.675 1 132 30.3253 132 66.5Z" stroke="url(#paint0_radial_2025_3834)" stroke-opacity="0.53" stroke-width="2"/>
<path d="M33.435 67.7V63.6H41.635V67.7H33.435ZM58.2208 73.112C58.2208 77.704 55.7198 80.328 51.1688 80.328C46.6178 80.328 44.1168 77.704 44.1168 73.112V70.857C44.1168 68.11 44.9368 65.978 46.9048 64.871C45.0188 63.846 44.1168 61.919 44.1168 59.09V58.188C44.1168 53.596 46.6178 50.972 51.1688 50.972C55.7198 50.972 58.2208 53.596 58.2208 58.188V59.09C58.2208 61.919 57.2778 63.846 55.4328 64.871C57.4008 65.978 58.2208 68.11 58.2208 70.857V73.112ZM48.6268 72.989C48.6268 75.531 49.7338 76.228 51.1688 76.228C52.6038 76.228 53.6698 75.531 53.7108 72.989V70.324C53.7108 68.069 52.7678 67.085 51.1688 67.085C49.5698 67.085 48.6268 68.069 48.6268 70.324V72.989ZM48.6268 58.352V59.951C48.6268 62.247 49.6928 62.985 51.1688 62.985C52.6038 62.985 53.7108 62.247 53.7108 59.951V58.352C53.7108 55.769 52.6038 55.072 51.1688 55.072C49.7338 55.072 48.6268 55.769 48.6268 58.352ZM60.6596 73.112V58.434C60.6596 53.596 62.8736 50.972 67.5476 50.972C71.9756 50.972 74.2716 53.596 74.2716 58.188V58.926H70.0076V57.901C70.0076 55.851 69.1056 55.072 67.6706 55.072C66.0716 55.072 65.1696 55.851 65.1696 58.598V63.846C65.9486 62.206 67.3426 61.304 69.3516 61.304C72.6726 61.304 74.3536 63.641 74.3536 67.864V73.112C74.3536 77.704 71.9346 80.328 67.5066 80.328C63.0786 80.328 60.6596 77.704 60.6596 73.112ZM67.5066 65.404C66.0716 65.404 65.1696 66.183 65.1696 68.233V73.399C65.1696 75.449 66.0716 76.187 67.5066 76.187C68.9416 76.187 69.8436 75.449 69.8436 73.399V68.233C69.8436 66.183 68.9416 65.404 67.5066 65.404ZM78.6825 62.06V69.26C78.6825 70.19 79.0725 70.58 79.7625 70.58C80.4225 70.58 80.8425 70.19 80.8425 69.26V62.06C80.8425 61.13 80.4225 60.74 79.7625 60.74C79.0725 60.74 78.6825 61.13 78.6825 62.06ZM76.5825 69.11V62.21C76.5825 60.05 77.6925 58.85 79.7625 58.85C81.8325 58.85 82.9425 60.05 82.9425 62.21V69.11C82.9425 71.27 81.8325 72.47 79.7625 72.47C77.6925 72.47 76.5825 71.27 76.5825 69.11ZM79.7625 80L88.0425 59H89.9925L81.7125 80H79.7625ZM89.0925 69.74V76.94C89.0925 77.87 89.4825 78.26 90.1725 78.26C90.8325 78.26 91.2525 77.87 91.2525 76.94V69.74C91.2525 68.81 90.8325 68.42 90.1725 68.42C89.4825 68.42 89.0925 68.81 89.0925 69.74ZM86.9925 76.79V69.89C86.9925 67.73 88.1025 66.53 90.1725 66.53C92.2425 66.53 93.3525 67.73 93.3525 69.89V76.79C93.3525 78.95 92.2425 80.15 90.1725 80.15C88.1025 80.15 86.9925 78.95 86.9925 76.79Z" fill="white"/>
<defs>
<radialGradient id="paint0_radial_2025_3834" cx="0" cy="0" r="1" gradientUnits="userSpaceOnUse" gradientTransform="translate(69.3531 3.91507e-06) rotate(90.5036) scale(74.9071 27.2123)">
<stop stop-color="white"/>
<stop offset="1" stop-color="white" stop-opacity="0"/>
</radialGradient>
</defs>
</svg>
