<svg width="331" height="103" viewBox="0 0 331 103" fill="none" xmlns="http://www.w3.org/2000/svg">
<path d="M11.2914 42C10.2581 38.5667 9.27474 35.2333 8.34141 32C7.40807 28.7333 6.45807 25.4333 5.49141 22.1C5.55807 23.8 5.59141 25.55 5.59141 27.35C5.59141 29.1167 5.59141 31.1167 5.59141 33.35V42H0.941406V0.849999H5.59141V9.35C5.59141 11.3833 5.59141 13.0833 5.59141 14.45C5.59141 15.7833 5.55807 17.0833 5.49141 18.35C6.42474 15.3167 7.35807 12.3833 8.29141 9.55C9.22474 6.68333 10.1747 3.78333 11.1414 0.849999H16.0914L9.49141 19.4L16.5914 42H11.2914ZM26.6707 35.4C26.404 36.7667 26.0874 37.8833 25.7207 38.75C25.354 39.5833 24.8374 40.25 24.1707 40.75C23.5374 41.2167 22.704 41.55 21.6707 41.75C20.6707 41.9167 19.404 42 17.8707 42H17.3707V37.4H17.8707C18.504 37.4 19.0707 37.3667 19.5707 37.3C20.104 37.2333 20.554 37.1 20.9207 36.9C21.3207 36.7 21.6374 36.4 21.8707 36C22.1374 35.6 22.3374 35.0667 22.4707 34.4L23.4707 29.2L17.1207 0.849999H22.1707L25.4707 19.95L28.6207 0.849999H33.1207L26.6707 35.4ZM44.4176 8.25C44.4176 7.31667 44.2176 6.63333 43.8176 6.2C43.4176 5.73333 42.7509 5.5 41.8176 5.5H39.9176V17.95H41.8676C43.5676 17.95 44.4176 17.0333 44.4176 15.2V8.25ZM35.3176 42V0.849999H41.8176C44.3176 0.849999 46.1342 1.45 47.2676 2.65C48.4009 3.81666 48.9676 5.7 48.9676 8.3V15.05C48.9676 17.65 48.3842 19.5333 47.2176 20.7C46.0842 21.8667 44.3009 22.45 41.8676 22.45H39.9176V42H35.3176ZM59.7297 26.9H63.9297V35.4C63.9297 37.8 63.4464 39.5833 62.4797 40.75C61.513 41.8833 59.963 42.45 57.8297 42.45C53.3964 42.45 51.1797 40.1333 51.1797 35.5V7.5C51.1797 2.76667 53.3964 0.399999 57.8297 0.399999C61.8964 0.399999 63.9297 2.73333 63.9297 7.4V14.7H59.7297V7.4C59.7297 6.6 59.5797 6.01667 59.2797 5.65C59.013 5.25 58.5297 5.05 57.8297 5.05C56.5297 5.05 55.8797 5.83333 55.8797 7.4V35.45C55.8797 37.05 56.5297 37.85 57.8297 37.85C59.0964 37.85 59.7297 37.05 59.7297 35.45V26.9ZM81.7453 25.6C81.7453 24.8 81.5953 24.2 81.2953 23.8C81.0286 23.4 80.512 23.2 79.7453 23.2H77.6953V18.85H79.9453C80.6453 18.85 81.112 18.65 81.3453 18.25C81.5786 17.8167 81.6953 17.2167 81.6953 16.45V7.45C81.6953 6.61667 81.5453 6.01667 81.2453 5.65C80.9786 5.25 80.4786 5.05 79.7453 5.05C79.0453 5.05 78.5453 5.25 78.2453 5.65C77.9786 6.01667 77.8453 6.61667 77.8453 7.45V14.75H73.2953V7.5C73.2953 5 73.812 3.2 74.8453 2.1C75.912 0.966665 77.5453 0.399999 79.7453 0.399999C81.9786 0.399999 83.5953 0.966665 84.5953 2.1C85.6286 3.2 86.1453 5.01666 86.1453 7.55V16.65C86.1453 17.8167 85.9286 18.75 85.4953 19.45C85.062 20.1167 84.3953 20.65 83.4953 21.05C84.362 21.3167 85.0286 21.8 85.4953 22.5C85.9953 23.2 86.2453 24.2 86.2453 25.5V35.45C86.2453 37.55 85.712 39.25 84.6453 40.55C83.612 41.8167 81.9786 42.45 79.7453 42.45C77.5453 42.45 75.8953 41.8167 74.7953 40.55C73.7286 39.2833 73.1953 37.6 73.1953 35.5V27.4H77.8453V35.45C77.8453 37.05 78.4786 37.85 79.7453 37.85C80.4786 37.85 80.9953 37.65 81.2953 37.25C81.5953 36.8167 81.7453 36.2167 81.7453 35.45V25.6ZM104.56 42V5.5H100.66V42H96.0098V0.849999H109.16V42H104.56ZM121.81 8.25C121.81 7.31667 121.61 6.63333 121.21 6.2C120.81 5.73333 120.143 5.5 119.21 5.5H117.31V17.95H119.26C120.96 17.95 121.81 17.0333 121.81 15.2V8.25ZM112.71 42V0.849999H119.21C121.71 0.849999 123.527 1.45 124.66 2.65C125.793 3.81666 126.36 5.7 126.36 8.3V15.05C126.36 17.65 125.777 19.5333 124.61 20.7C123.477 21.8667 121.693 22.45 119.26 22.45H117.31V42H112.71ZM128.572 7.4C128.572 2.73333 130.756 0.399999 135.122 0.399999C139.522 0.399999 141.722 2.73333 141.722 7.4V35.45C141.722 40.1167 139.522 42.45 135.122 42.45C130.756 42.45 128.572 40.1167 128.572 35.45V7.4ZM137.122 7.4C137.122 5.83333 136.456 5.05 135.122 5.05C133.822 5.05 133.172 5.83333 133.172 7.4V35.45C133.172 37.05 133.822 37.85 135.122 37.85C136.456 37.85 137.122 37.05 137.122 35.45V7.4ZM142.757 47.45V37.4H143.707C144.073 37.4 144.423 37.25 144.757 36.95C145.123 36.65 145.44 36.0333 145.707 35.1C145.84 34.6 145.973 33.95 146.107 33.15C146.24 32.35 146.373 31.3167 146.507 30.05C146.64 28.7833 146.757 27.2167 146.857 25.35C146.99 23.45 147.123 21.1667 147.257 18.5L148.157 0.849999H159.007V37.4H161.207V47.45H157.607V42H146.357V47.45H142.757ZM154.407 37.4V5.5H151.907L151.157 19.1C150.99 21.8667 150.823 24.2833 150.657 26.35C150.49 28.4167 150.307 30.2 150.107 31.7C149.94 33.1667 149.757 34.3667 149.557 35.3C149.39 36.2333 149.207 36.9333 149.007 37.4H154.407ZM173.291 42L172.541 35.65H167.491C167.325 36.7167 167.175 37.7833 167.041 38.85C166.941 39.8833 166.825 40.9333 166.691 42H162.191L167.541 0.849999H172.891L177.941 42H173.291ZM172.041 31.4C171.675 28.2667 171.325 25.1833 170.991 22.15C170.658 19.0833 170.341 15.9333 170.041 12.7C169.441 19.1667 168.741 25.4 167.941 31.4H172.041ZM178.93 42L185.93 19.35L179.43 0.849999H184.38L189.78 18.4V0.849999H194.28V18.4L199.78 0.849999H204.68L198.18 19.35L205.18 42H199.93L194.28 22.1V42H189.78V22.1L184.23 42H178.93ZM215.294 35.4C215.027 36.7667 214.71 37.8833 214.344 38.75C213.977 39.5833 213.46 40.25 212.794 40.75C212.16 41.2167 211.327 41.55 210.294 41.75C209.294 41.9167 208.027 42 206.494 42H205.994V37.4H206.494C207.127 37.4 207.694 37.3667 208.194 37.3C208.727 37.2333 209.177 37.1 209.544 36.9C209.944 36.7 210.26 36.4 210.494 36C210.76 35.6 210.96 35.0667 211.094 34.4L212.094 29.2L205.744 0.849999H210.794L214.094 19.95L217.244 0.849999H221.744L215.294 35.4ZM233.728 42V5.5H229.428V0.849999H242.628V5.5H238.328V42H233.728ZM243.807 7.4C243.807 2.73333 245.99 0.399999 250.357 0.399999C254.757 0.399999 256.957 2.73333 256.957 7.4V35.45C256.957 40.1167 254.757 42.45 250.357 42.45C245.99 42.45 243.807 40.1167 243.807 35.45V7.4ZM252.357 7.4C252.357 5.83333 251.69 5.05 250.357 5.05C249.057 5.05 248.407 5.83333 248.407 7.4V35.45C248.407 37.05 249.057 37.85 250.357 37.85C251.69 37.85 252.357 37.05 252.357 35.45V7.4ZM268.77 7.85C268.77 6.98333 268.62 6.38333 268.32 6.05C268.02 5.68333 267.537 5.5 266.87 5.5H264.82V18.95H266.92C268.153 18.95 268.77 18.2333 268.77 16.8V7.85ZM268.87 25.4C268.87 24.5333 268.72 23.9167 268.42 23.55C268.153 23.1833 267.653 23 266.92 23H264.82V37.4H266.87C268.203 37.4 268.87 36.6 268.87 35V25.4ZM260.22 42V0.849999H266.87C269.103 0.849999 270.687 1.41667 271.62 2.55C272.587 3.68333 273.07 5.5 273.07 8V16.35C273.07 18.6833 272.337 20.1333 270.87 20.7C271.603 20.8667 272.237 21.3 272.77 22C273.303 22.7 273.57 23.7 273.57 25V35.05C273.57 37.4833 273.003 39.25 271.87 40.35C270.77 41.45 269.103 42 266.87 42H260.22ZM285.694 42L284.944 35.65H279.894C279.727 36.7167 279.577 37.7833 279.444 38.85C279.344 39.8833 279.227 40.9333 279.094 42H274.594L279.944 0.849999H285.294L290.344 42H285.694ZM284.444 31.4C284.077 28.2667 283.727 25.1833 283.394 22.15C283.06 19.0833 282.744 15.9333 282.444 12.7C281.844 19.1667 281.144 25.4 280.344 31.4H284.444ZM301.839 8.25C301.839 7.31667 301.639 6.63333 301.239 6.2C300.839 5.73333 300.173 5.5 299.239 5.5H297.339V17.95H299.289C300.989 17.95 301.839 17.0333 301.839 15.2V8.25ZM292.739 42V0.849999H299.239C301.739 0.849999 303.556 1.45 304.689 2.65C305.823 3.81666 306.389 5.7 306.389 8.3V15.05C306.389 17.65 305.806 19.5333 304.639 20.7C303.506 21.8667 301.723 22.45 299.289 22.45H297.339V42H292.739ZM309.002 42V0.849999H313.602V42H309.002ZM325.85 7.85C325.85 6.98333 325.7 6.38333 325.4 6.05C325.1 5.68333 324.617 5.5 323.95 5.5H321.9V18.95H324C325.233 18.95 325.85 18.2333 325.85 16.8V7.85ZM325.95 25.4C325.95 24.5333 325.8 23.9167 325.5 23.55C325.233 23.1833 324.733 23 324 23H321.9V37.4H323.95C325.283 37.4 325.95 36.6 325.95 35V25.4ZM317.3 42V0.849999H323.95C326.183 0.849999 327.767 1.41667 328.7 2.55C329.667 3.68333 330.15 5.5 330.15 8V16.35C330.15 18.6833 329.417 20.1333 327.95 20.7C328.683 20.8667 329.317 21.3 329.85 22C330.383 22.7 330.65 23.7 330.65 25V35.05C330.65 37.4833 330.083 39.25 328.95 40.35C327.85 41.45 326.183 42 323.95 42H317.3ZM47.4797 102V83.35H43.5797V102H38.9797V60.85H43.5797V78.75H47.4797V60.85H52.0797V102H47.4797ZM65.4301 102L64.6801 95.65H59.6301C59.4634 96.7167 59.3134 97.7833 59.1801 98.85C59.0801 99.8833 58.9634 100.933 58.8301 102H54.3301L59.6801 60.85H65.0301L70.0801 102H65.4301ZM64.1801 91.4C63.8134 88.2667 63.4634 85.1833 63.1301 82.15C62.7967 79.0833 62.4801 75.9333 62.1801 72.7C61.5801 79.1667 60.8801 85.4 60.0801 91.4H64.1801ZM94.2629 102V90C94.2629 87.3 94.2796 84.6167 94.3129 81.95C94.3462 79.2833 94.3962 76.6 94.4629 73.9C94.2296 75.6 93.9796 77.3333 93.7129 79.1C93.4796 80.8667 93.2129 82.85 92.9129 85.05C92.6462 87.2167 92.3296 89.6833 91.9629 92.45C91.6296 95.1833 91.2296 98.3667 90.7629 102H86.7629L83.1629 73.9C83.2296 76.6 83.2796 79.2833 83.3129 81.95C83.3462 84.6167 83.3629 87.3 83.3629 90V102H79.1129V60.85H85.2629C85.7629 65.5167 86.1962 69.45 86.5629 72.65C86.9296 75.8167 87.2462 78.55 87.5129 80.85C87.7796 83.1167 87.9962 85.05 88.1629 86.65C88.3629 88.25 88.5462 89.7833 88.7129 91.25C88.8796 89.8167 89.0629 88.3 89.2629 86.7C89.4629 85.0667 89.6962 83.1167 89.9629 80.85C90.2296 78.55 90.5462 75.8 90.9129 72.6C91.2796 69.4 91.7129 65.4833 92.2129 60.85H98.5129V102H94.2629ZM111.768 102L111.018 95.65H105.968C105.801 96.7167 105.651 97.7833 105.518 98.85C105.418 99.8833 105.301 100.933 105.168 102H100.668L106.018 60.85H111.368L116.418 102H111.768ZM110.518 91.4C110.151 88.2667 109.801 85.1833 109.468 82.15C109.135 79.0833 108.818 75.9333 108.518 72.7C107.918 79.1667 107.218 85.4 106.418 91.4H110.518ZM127.914 68.25C127.914 67.3167 127.714 66.6333 127.314 66.2C126.914 65.7333 126.247 65.5 125.314 65.5H123.414V77.95H125.364C127.064 77.95 127.914 77.0333 127.914 75.2V68.25ZM118.814 102V60.85H125.314C127.814 60.85 129.63 61.45 130.764 62.65C131.897 63.8167 132.464 65.7 132.464 68.3V75.05C132.464 77.65 131.88 79.5333 130.714 80.7C129.58 81.8667 127.797 82.45 125.364 82.45H123.414V102H118.814ZM145.276 102C144.242 98.5667 143.259 95.2333 142.326 92C141.392 88.7333 140.442 85.4333 139.476 82.1C139.542 83.8 139.576 85.55 139.576 87.35C139.576 89.1167 139.576 91.1167 139.576 93.35V102H134.926V60.85H139.576V69.35C139.576 71.3833 139.576 73.0833 139.576 74.45C139.576 75.7833 139.542 77.0833 139.476 78.35C140.409 75.3167 141.342 72.3833 142.276 69.55C143.209 66.6833 144.159 63.7833 145.126 60.85H150.076L143.476 79.4L150.576 102H145.276ZM152.505 102V60.85H163.605V65.5H157.105V78.7H161.455V83.35H157.105V97.4H163.855V102H152.505ZM169.568 102V65.5H165.268V60.85H178.468V65.5H174.168V102H169.568ZM189.228 102V65.5H185.328V102H180.678V60.85H193.828V102H189.228ZM196.028 102V97.4H196.628C197.161 97.4 197.611 97.2833 197.978 97.05C198.345 96.7833 198.678 96.1333 198.978 95.1C199.111 94.6333 199.245 94.0167 199.378 93.25C199.511 92.4833 199.628 91.4667 199.728 90.2C199.861 88.9333 199.995 87.3667 200.128 85.5C200.261 83.6 200.395 81.2667 200.528 78.5L201.428 60.85H212.278V102H207.678V65.5H205.178L204.428 79.3C204.261 82.0667 204.095 84.45 203.928 86.45C203.795 88.4167 203.645 90.1 203.478 91.5C203.311 92.8667 203.145 93.9833 202.978 94.85C202.811 95.7167 202.661 96.4167 202.528 96.95C202.061 98.6167 201.395 99.8833 200.528 100.75C199.695 101.583 198.445 102 196.778 102H196.028ZM215.884 102V60.85H226.984V65.5H220.484V78.7H224.834V83.35H220.484V97.4H227.234V102H215.884ZM243.296 51.25C243.296 52.75 243.163 53.9833 242.896 54.95C242.63 55.9167 242.213 56.7 241.646 57.3C241.113 57.8667 240.413 58.2667 239.546 58.5C238.713 58.7 237.73 58.8 236.596 58.8C235.296 58.8 234.196 58.7 233.296 58.5C232.43 58.2667 231.73 57.8667 231.196 57.3C230.663 56.7 230.28 55.9167 230.046 54.95C229.813 53.9833 229.696 52.75 229.696 51.25H233.446C233.446 52.3833 233.513 53.3 233.646 54C233.813 54.6667 234.03 55.1833 234.296 55.55C234.596 55.8833 234.93 56.1167 235.296 56.25C235.663 56.35 236.063 56.4 236.496 56.4C236.896 56.4 237.28 56.35 237.646 56.25C238.013 56.1167 238.33 55.8833 238.596 55.55C238.896 55.1833 239.113 54.6667 239.246 54C239.413 53.3 239.496 52.3833 239.496 51.25H243.296ZM229.896 102V60.85H234.096V86.8L237.696 60.85H243.046V102H238.796V75.6L234.346 102H229.896ZM254.847 86.9H259.047V95.4C259.047 97.8 258.564 99.5833 257.597 100.75C256.63 101.883 255.08 102.45 252.947 102.45C248.514 102.45 246.297 100.133 246.297 95.5V67.5C246.297 62.7667 248.514 60.4 252.947 60.4C257.014 60.4 259.047 62.7333 259.047 67.4V74.7H254.847V67.4C254.847 66.6 254.697 66.0167 254.397 65.65C254.13 65.25 253.647 65.05 252.947 65.05C251.647 65.05 250.997 65.8333 250.997 67.4V95.45C250.997 97.05 251.647 97.85 252.947 97.85C254.214 97.85 254.847 97.05 254.847 95.45V86.9ZM271.241 102L270.491 95.65H265.441C265.274 96.7167 265.124 97.7833 264.991 98.85C264.891 99.8833 264.774 100.933 264.641 102H260.141L265.491 60.85H270.841L275.891 102H271.241ZM269.991 91.4C269.624 88.2667 269.274 85.1833 268.941 82.15C268.607 79.0833 268.291 75.9333 267.991 72.7C267.391 79.1667 266.691 85.4 265.891 91.4H269.991ZM288.729 102C288.429 100.333 288.079 98.6167 287.679 96.85C287.313 95.05 286.946 93.35 286.579 91.75C286.246 90.15 285.946 88.7333 285.679 87.5C285.413 86.2667 285.246 85.3833 285.179 84.85C285.113 85.3833 284.946 86.2667 284.679 87.5C284.446 88.7333 284.163 90.15 283.829 91.75C283.496 93.3167 283.129 95 282.729 96.8C282.363 98.6 282.013 100.333 281.679 102H276.979L282.629 80L277.879 60.85H282.829C283.029 62.15 283.263 63.5167 283.529 64.95C283.829 66.3833 284.096 67.75 284.329 69.05C284.596 70.35 284.829 71.5167 285.029 72.55C285.229 73.55 285.346 74.2667 285.379 74.7C285.413 74.2667 285.529 73.55 285.729 72.55C285.929 71.5167 286.163 70.35 286.429 69.05C286.696 67.75 286.963 66.3833 287.229 64.95C287.529 63.5167 287.779 62.15 287.979 60.85H292.779L287.929 79.85L293.679 102H288.729Z" fill="white"/>
</svg>
