<svg width="114" height="112" viewBox="0 0 114 112" fill="none" xmlns="http://www.w3.org/2000/svg">
<path d="M102.763 59.3702C102.84 58.6369 103.036 57.9888 103.353 57.426C103.67 56.8679 104.084 56.4233 104.598 56.0921C105.115 55.7661 105.706 55.5862 106.371 55.5525L106.454 57.3207C105.844 57.4071 105.353 57.6631 104.98 58.0887C104.607 58.5189 104.389 59.0357 104.326 59.639C104.288 59.9964 104.309 60.3388 104.387 60.666C104.466 60.9933 104.601 61.2655 104.795 61.4828C104.987 61.7046 105.239 61.8318 105.55 61.8643C105.689 61.8789 105.819 61.869 105.94 61.8347C106.066 61.8009 106.18 61.7424 106.282 61.6593C106.384 61.5808 106.48 61.4735 106.569 61.3374C106.663 61.2064 106.747 61.051 106.822 60.8711L107.859 58.3612C107.947 58.1452 108.058 57.9128 108.192 57.6641C108.33 57.4204 108.506 57.1925 108.721 56.9803C108.939 56.7733 109.205 56.611 109.518 56.4935C109.834 56.3811 110.213 56.348 110.654 56.394C111.299 56.4614 111.823 56.6804 112.225 57.0509C112.632 57.4265 112.915 57.9018 113.076 58.477C113.236 59.0567 113.278 59.6852 113.203 60.3623C113.126 61.0488 112.944 61.6491 112.655 62.1632C112.372 62.6779 111.993 63.0934 111.519 63.4099C111.045 63.7263 110.491 63.9266 109.858 64.0106L109.733 62.1747C110.094 62.1373 110.408 62.0247 110.677 61.8369C110.949 61.6542 111.166 61.4165 111.328 61.1237C111.49 60.8356 111.593 60.5203 111.638 60.1778C111.678 59.8441 111.659 59.5278 111.583 59.2289C111.51 58.9351 111.385 58.6898 111.209 58.4931C111.032 58.301 110.813 58.1913 110.554 58.1642C110.308 58.1385 110.098 58.1917 109.925 58.3237C109.756 58.4562 109.614 58.6267 109.498 58.8352C109.387 59.0487 109.289 59.2661 109.205 59.4872L108.516 61.2311C108.425 61.4703 108.308 61.7372 108.165 62.0319C108.021 62.3266 107.835 62.6051 107.606 62.8674C107.377 63.1296 107.09 63.3343 106.746 63.4814C106.402 63.6331 105.979 63.6828 105.478 63.6304C104.958 63.5761 104.512 63.4193 104.141 63.1599C103.773 62.9057 103.479 62.5816 103.257 62.1878C103.035 61.794 102.884 61.3536 102.804 60.8666C102.723 60.3842 102.709 59.8854 102.763 59.3702Z" fill="#FF7A7A"/>
<path d="M102.447 64.889L111.03 71.0558L110.259 73.4032L99.6903 73.2746L100.232 71.6254L109.725 71.7098L109.607 72.0689L101.905 66.5382L102.447 64.889ZM103.968 67.2534L105.465 67.7453L103.812 72.7726L102.316 72.2808L103.968 67.2534Z" fill="#FF7A7A"/>
<path d="M98.8036 75.211L107.575 80.1771L106.744 81.6452L99.3491 77.4584L97.1557 81.3326L95.7791 80.5532L98.8036 75.211Z" fill="#FF7A7A"/>
<path d="M94.8399 82.0984L102.562 88.5779L98.3769 93.5647L97.165 92.5478L100.265 88.8532L98.3617 87.2559L95.8014 90.307L94.5895 89.2901L97.1498 86.239L94.9674 84.4076L91.8671 88.1022L90.6553 87.0853L94.8399 82.0984Z" fill="#FF7A7A"/>
<path d="M61.3918 101.331C62.1265 101.269 62.8 101.34 63.4123 101.546C64.0199 101.752 64.5345 102.076 64.9562 102.518C65.3735 102.964 65.6613 103.511 65.8193 104.158L64.0982 104.572C63.8988 103.989 63.555 103.555 63.067 103.268C62.5743 102.982 62.0258 102.865 61.4213 102.917C61.0632 102.947 60.7309 103.032 60.4242 103.17C60.1175 103.308 59.8756 103.493 59.6985 103.723C59.5167 103.954 59.4391 104.226 59.4656 104.537C59.4774 104.677 59.5116 104.803 59.5679 104.915C59.6247 105.032 59.7036 105.133 59.8045 105.218C59.9007 105.303 60.0241 105.377 60.1746 105.439C60.3208 105.506 60.4893 105.56 60.68 105.6L63.3399 106.147C63.5686 106.193 63.8178 106.258 64.0872 106.343C64.3525 106.433 64.6094 106.563 64.8582 106.734C65.1026 106.91 65.3119 107.14 65.486 107.425C65.6559 107.715 65.7596 108.081 65.7971 108.523C65.8521 109.169 65.7354 109.725 65.4471 110.19C65.1545 110.659 64.7409 111.027 64.2061 111.293C63.6667 111.559 63.0574 111.718 62.3781 111.771C61.6896 111.825 61.0657 111.759 60.5065 111.572C59.9478 111.39 59.4684 111.096 59.0686 110.69C58.6687 110.284 58.3681 109.778 58.1667 109.172L59.9465 108.704C60.0509 109.051 60.2206 109.339 60.4554 109.567C60.686 109.801 60.9603 109.969 61.2783 110.073C61.5916 110.178 61.9207 110.22 62.2656 110.2C62.6008 110.176 62.908 110.099 63.1872 109.967C63.4621 109.841 63.6796 109.672 63.8397 109.462C63.9951 109.252 64.0618 109.017 64.0396 108.757C64.0187 108.51 63.9271 108.314 63.7648 108.169C63.603 108.028 63.4088 107.92 63.1824 107.846C62.9517 107.777 62.7198 107.721 62.4868 107.68L60.6446 107.331C60.3926 107.287 60.1084 107.222 59.7921 107.137C59.4757 107.051 59.1672 106.921 58.8665 106.745C58.5659 106.569 58.311 106.326 58.102 106.016C57.8883 105.706 57.7601 105.3 57.7174 104.798C57.6731 104.277 57.7434 103.81 57.9284 103.396C58.109 102.988 58.372 102.637 58.7172 102.346C59.0624 102.054 59.4666 101.823 59.9298 101.652C60.3883 101.482 60.8757 101.375 61.3918 101.331Z" fill="#FF7A7A"/>
<path d="M55.682 102.035L51.2514 111.631L48.8003 111.318L46.9263 100.916L48.6483 101.136L50.362 110.473L49.9871 110.425L53.96 101.815L55.682 102.035ZM53.6483 103.977L53.4486 105.539L48.1993 104.868L48.3991 103.306L53.6483 103.977Z" fill="#FF7A7A"/>
<path d="M44.9453 100.417L41.7255 109.969L40.1269 109.43L42.8414 101.377L38.6226 99.955L39.1279 98.4559L44.9453 100.417Z" fill="#FF7A7A"/>
<path d="M37.4411 97.8141L32.5398 106.622L26.8512 103.457L27.6204 102.074L31.8349 104.42L33.0432 102.248L29.5627 100.311L30.332 98.929L33.8124 100.866L35.1977 98.3762L30.9833 96.031L31.7525 94.6486L37.4411 97.8141Z" fill="#FF7A7A"/>
<path d="M15.7003 76.9036C16.0348 77.5607 16.222 78.2116 16.2621 78.8562C16.3001 79.4966 16.1938 80.0953 15.9432 80.6523C15.6863 81.2072 15.2879 81.6796 14.7481 82.0696L13.7172 80.6307C14.1818 80.2266 14.4549 79.7447 14.5364 79.1847C14.6159 78.6207 14.518 78.0683 14.2428 77.5276C14.0798 77.2074 13.8764 76.9313 13.6327 76.6993C13.3889 76.4673 13.1269 76.3126 12.8467 76.2353C12.5644 76.1539 12.2839 76.1841 12.0052 76.3259C11.8804 76.3894 11.7767 76.4684 11.6939 76.5629C11.6069 76.6595 11.543 76.7706 11.5021 76.8961C11.4592 77.0175 11.4373 77.1596 11.4363 77.3223C11.4291 77.4831 11.4429 77.6594 11.4777 77.8511L11.9727 80.5211C12.016 80.7504 12.0492 81.0058 12.0721 81.2874C12.0887 81.5669 12.0647 81.854 12 82.1488C11.929 82.4415 11.7943 82.7221 11.5959 82.9907C11.3912 83.2572 11.0913 83.491 10.6962 83.6921C10.1181 83.9864 9.5595 84.0874 9.02038 83.9953C8.47498 83.9011 7.9786 83.6563 7.53122 83.2609C7.08173 82.8613 6.70454 82.3568 6.39963 81.7475C6.0905 81.1299 5.91713 80.5269 5.87952 79.9386C5.83775 79.3525 5.92978 78.7977 6.15561 78.2743C6.38143 77.7509 6.73705 77.2819 7.22244 76.8673L8.32557 78.3402C8.04336 78.5676 7.84073 78.8331 7.71768 79.1366C7.58836 79.438 7.53533 79.7556 7.55859 80.0894C7.57973 80.419 7.66447 80.7398 7.8128 81.0518C7.96105 81.3533 8.14863 81.6087 8.37553 81.8179C8.59616 82.025 8.83403 82.1631 9.08914 82.2323C9.34214 82.2972 9.58509 82.2704 9.81799 82.1519C10.0384 82.0397 10.1855 81.8811 10.2591 81.676C10.3286 81.4731 10.3552 81.2527 10.3389 81.0149C10.3163 80.7751 10.2802 80.5395 10.2305 80.3082L9.86048 78.47C9.80651 78.22 9.75958 77.9323 9.71968 77.607C9.67979 77.2817 9.68469 76.9467 9.7344 76.602C9.7841 76.2573 9.91324 75.9297 10.1218 75.6193C10.3283 75.3048 10.6561 75.0332 11.1052 74.8046C11.571 74.5675 12.0304 74.4567 12.4834 74.4723C12.9302 74.4858 13.3536 74.5975 13.7537 74.8075C14.1539 75.0176 14.5201 75.305 14.8525 75.67C15.1827 76.0308 15.4653 76.442 15.7003 76.9036Z" fill="#FF7A7A"/>
<path d="M12.9857 72.1409L2.42895 71.6299L1.80076 69.2401L10.7416 63.6039L11.183 65.2829L3.16931 70.3714L3.07322 70.0058L12.5444 70.4619L12.9857 72.1409ZM10.4232 70.9833L8.89997 71.3837L7.5546 66.2656L9.07785 65.8652L10.4232 70.9833Z" fill="#FF7A7A"/>
<path d="M10.443 61.5588L0.382184 62.1807L0.278108 60.4969L8.75992 59.9726L8.48527 55.5291L10.0643 55.4315L10.443 61.5588Z" fill="#FF7A7A"/>
<path d="M10.0035 53.5009L0 52.2611L0.800758 45.8005L2.37074 45.9951L1.77749 50.7815L4.24362 51.0871L4.73355 47.1344L6.30354 47.329L5.81361 51.2817L8.64098 51.6322L9.23423 46.8458L10.8042 47.0404L10.0035 53.5009Z" fill="#FF7A7A"/>
<path d="M21.2966 25.3744C20.8104 25.9287 20.2754 26.3441 19.6917 26.6204C19.111 26.8933 18.5156 27.0166 17.9054 26.9904C17.2948 26.9577 16.7083 26.763 16.1459 26.4063L17.0998 24.9152C17.6473 25.1968 18.1962 25.2716 18.7465 25.1397C19.2998 25.0042 19.7764 24.7085 20.1764 24.2523C20.4134 23.9822 20.5944 23.6909 20.7194 23.3785C20.8444 23.066 20.8909 22.7654 20.8587 22.4765C20.8296 22.1841 20.6976 21.9348 20.4625 21.7286C20.3572 21.6363 20.2454 21.5692 20.1269 21.5274C20.0049 21.4825 19.878 21.4643 19.7463 21.473C19.6177 21.4781 19.4776 21.5104 19.3261 21.5699C19.1741 21.6229 19.0156 21.7011 18.8504 21.8045L16.5545 23.2545C16.3577 23.3798 16.1328 23.5053 15.8797 23.631C15.6263 23.7502 15.3507 23.8344 15.053 23.8836C14.7549 23.9263 14.4443 23.9053 14.1213 23.8206C13.7979 23.7294 13.4695 23.5376 13.1362 23.2453C12.6485 22.8176 12.3475 22.3363 12.2331 21.8015C12.1182 21.2601 12.1615 20.7083 12.3627 20.1461C12.5671 19.5805 12.8956 19.0431 13.3484 18.5339C13.8073 18.0178 14.3029 17.6331 14.8353 17.38C15.3642 17.1238 15.9135 17.0034 16.4833 17.019C17.0531 17.0346 17.6206 17.1909 18.1856 17.4879L17.227 19.0586C16.9112 18.8809 16.5895 18.7912 16.262 18.7895C15.934 18.7812 15.6194 18.8498 15.3181 18.9952C15.0199 19.1371 14.7534 19.3348 14.5187 19.5882C14.2936 19.8378 14.126 20.1067 14.0159 20.395C13.9054 20.6767 13.8654 20.9488 13.8958 21.2114C13.9293 21.4704 14.0443 21.6861 14.2408 21.8584C14.4267 22.0215 14.6286 22.0992 14.8463 22.0916C15.0606 22.0809 15.2751 22.0238 15.4899 21.9205C15.7043 21.8105 15.9096 21.6896 16.106 21.5577L17.6758 20.5322C17.888 20.3893 18.1377 20.239 18.425 20.0813C18.7123 19.9236 19.0252 19.8039 19.3638 19.7222C19.7023 19.6405 20.0544 19.6389 20.42 19.7175C20.7887 19.7926 21.1625 19.9962 21.5414 20.3286C21.9344 20.6732 22.2076 21.0587 22.3612 21.4852C22.5144 21.905 22.5677 22.3397 22.5211 22.7892C22.4745 23.2387 22.3433 23.6854 22.1277 24.1295C21.9152 24.57 21.6381 24.985 21.2966 25.3744Z" fill="#FF7A7A"/>
<path d="M24.6585 21.1122L21.1893 11.1287L23.1715 9.65332L31.7394 15.8419L30.3468 16.8784L22.6334 11.3454L22.9366 11.1197L26.0511 20.0757L24.6585 21.1122ZM24.7751 18.3028L23.8347 17.0394L28.0799 13.8797L29.0203 15.1431L24.7751 18.3028Z" fill="#FF7A7A"/>
<path d="M33.5607 14.753L29.2231 5.65404L30.7459 4.9281L34.4028 12.5991L38.4215 10.6833L39.1022 12.1113L33.5607 14.753Z" fill="#FF7A7A"/>
<path d="M40.5919 11.4179L37.9923 1.6789L44.2821 0L44.6901 1.52848L40.0302 2.77232L40.6711 5.17326L44.5194 4.14606L44.9274 5.67454L41.0791 6.70174L41.8138 9.45437L46.4737 8.21054L46.8817 9.73902L40.5919 11.4179Z" fill="#FF7A7A"/>
<path d="M71.1351 11.2881C70.4391 11.0447 69.8538 10.704 69.3791 10.2661C68.9088 9.82973 68.5716 9.32372 68.3675 8.74808C68.1693 8.16958 68.1304 7.55283 68.2507 6.89782L69.9904 7.22443C69.9342 7.83757 70.0702 8.37458 70.3985 8.83544C70.7312 9.29785 71.1838 9.62918 71.7565 9.82945C72.0957 9.94807 72.4335 10.0069 72.7701 10.0059C73.1066 10.005 73.4028 9.93552 73.6586 9.79759C73.9189 9.6612 74.1007 9.44543 74.2039 9.15029C74.2501 9.01814 74.2704 8.8893 74.2649 8.76377C74.2609 8.63383 74.2303 8.50941 74.173 8.39049C74.1201 8.27312 74.0377 8.15532 73.9258 8.03708C73.8198 7.91598 73.688 7.79819 73.5303 7.68371L71.3264 6.09726C71.1366 5.96165 70.936 5.80005 70.7247 5.61246C70.5194 5.42201 70.3382 5.19797 70.1811 4.94033C70.03 4.67984 69.9332 4.38398 69.8909 4.05276C69.8544 3.71867 69.9094 3.34239 70.0557 2.92391C70.2699 2.3116 70.6035 1.85233 71.0567 1.54609C71.5158 1.23699 72.0437 1.07058 72.6403 1.04686C73.2413 1.02469 73.8626 1.12826 74.5042 1.35758C75.1546 1.58998 75.6968 1.90566 76.1307 2.30461C76.5662 2.69916 76.8834 3.16355 77.0822 3.69779C77.281 4.23202 77.3484 4.81673 77.2845 5.4519L75.4691 5.15075C75.5157 4.79131 75.4785 4.45943 75.3575 4.1551C75.2425 3.8479 75.0612 3.5818 74.8136 3.35678C74.5704 3.13331 74.2873 2.96016 73.9644 2.83736C73.6488 2.72203 73.3367 2.66727 73.0282 2.67308C72.7256 2.67602 72.4582 2.74072 72.2261 2.8672C71.9984 2.99521 71.8415 3.18256 71.7552 3.42924C71.6736 3.66271 71.677 3.87898 71.7656 4.07805C71.8557 4.27271 71.9889 4.4503 72.1651 4.6108C72.3473 4.76844 72.5363 4.91364 72.7321 5.04639L74.2705 6.11832C74.4824 6.26164 74.7152 6.43699 74.969 6.64439C75.2228 6.85179 75.4509 7.09718 75.6534 7.38057C75.8558 7.66396 75.989 7.98987 76.053 8.3583C76.1214 8.72828 76.0723 9.15114 75.906 9.62689C75.7334 10.1203 75.4782 10.518 75.1402 10.82C74.8082 11.1191 74.425 11.3312 73.9907 11.4562C73.5565 11.5812 73.0931 11.6268 72.6007 11.593C72.1126 11.5607 71.6241 11.4591 71.1351 11.2881Z" fill="#FF7A7A"/>
<path d="M76.5416 12.91L84.5333 5.99343L86.6373 7.28914L84.0577 17.5386L82.5795 16.6283L84.8662 7.41515L85.1881 7.61336L78.0198 13.8203L76.5416 12.91ZM79.1948 11.979L80.0207 10.6379L84.5268 13.4129L83.7009 14.754L79.1948 11.979Z" fill="#FF7A7A"/>
<path d="M85.6894 18.8027L92.5266 11.396L93.7662 12.5403L88.0021 18.7846L91.2734 21.8043L90.2004 22.9667L85.6894 18.8027Z" fill="#FF7A7A"/>
<path d="M91.4285 24.1478L99.4925 18.0999L103.399 23.3079L102.133 24.2571L99.2391 20.3987L97.2511 21.8896L99.6409 25.0761L98.3753 26.0252L95.9855 22.8388L93.7063 24.5482L96.6001 28.4066L95.3345 29.3558L91.4285 24.1478Z" fill="#FF7A7A"/>
</svg>
